<svg width="108" height="108" viewBox="0 0 108 108" fill="none" xmlns="http://www.w3.org/2000/svg">
<path d="M10.046 35.7253C9.25803 32.1746 9.37901 28.4824 10.3977 24.991C11.4164 21.4995 13.2998 18.3219 15.8733 15.7528C18.4468 13.1837 21.6271 11.3062 25.1192 10.2944C28.6114 9.28265 32.3024 9.16934 35.85 9.96502C37.8027 6.90999 40.4926 4.39584 43.672 2.65433C46.8513 0.912825 50.4177 0 54.0424 0C57.6672 0 61.2336 0.912825 64.4129 2.65433C67.5922 4.39584 70.2822 6.90999 72.2348 9.96502C75.7878 9.16588 79.4852 9.27867 82.9829 10.2929C86.4807 11.3071 89.6652 13.1899 92.2402 15.766C94.8153 18.342 96.6973 21.5278 97.7112 25.0269C98.725 28.5261 98.8377 32.2248 98.0389 35.7793C101.093 37.7327 103.606 40.4237 105.347 43.6043C107.088 46.7849 108 50.3527 108 53.9788C108 57.605 107.088 61.1728 105.347 64.3534C103.606 67.534 101.093 70.225 98.0389 72.1784C98.8343 75.7274 98.721 79.4199 97.7096 82.9134C96.6983 86.407 94.8215 89.5885 92.2534 92.163C89.6853 94.7375 86.5089 96.6217 83.0189 97.6408C79.5288 98.6599 75.8381 98.7809 72.2888 97.9926C70.3387 101.059 67.6467 103.584 64.4619 105.334C61.2771 107.083 57.7027 108 54.0694 108C50.4362 108 46.8617 107.083 43.6769 105.334C40.4922 103.584 37.8001 101.059 35.85 97.9926C32.3024 98.7883 28.6114 98.675 25.1192 97.6633C21.6271 96.6515 18.4468 94.774 15.8733 92.2048C13.2998 89.6357 11.4164 86.4581 10.3977 82.9667C9.37901 79.4753 9.25803 75.7831 10.046 72.2324C6.96867 70.2842 4.43392 67.589 2.67749 64.3975C0.921055 61.206 0 57.622 0 53.9788C0 50.3356 0.921055 46.7516 2.67749 43.5602C4.43392 40.3687 6.96867 37.6735 10.046 35.7253Z" fill="#34C759"/>
<path d="M73.212 40.5L47.2504 66.9808L35.3081 54.2507" stroke="white" stroke-width="5.19231"/>
</svg>
