<svg width="16" height="17" viewBox="0 0 16 17" fill="none" xmlns="http://www.w3.org/2000/svg">
<g clip-path="url(#clip0_79_2047)">
<path d="M13.3333 8.0555H8.44444V3.16661C8.44444 3.04874 8.39761 2.93569 8.31426 2.85234C8.23091 2.76899 8.11787 2.72217 7.99999 2.72217C7.88212 2.72217 7.76907 2.76899 7.68572 2.85234C7.60237 2.93569 7.55555 3.04874 7.55555 3.16661V8.0555H2.66666C2.54879 8.0555 2.43574 8.10233 2.35239 8.18568C2.26904 8.26903 2.22222 8.38207 2.22222 8.49995C2.22002 8.55771 2.23024 8.61527 2.25217 8.66875C2.2741 8.72223 2.30724 8.77039 2.34936 8.80998C2.39148 8.84957 2.44159 8.87967 2.49633 8.89826C2.55106 8.91684 2.60914 8.92348 2.66666 8.91772H7.55555V13.8333C7.55555 13.9512 7.60237 14.0642 7.68572 14.1475C7.76907 14.2309 7.88212 14.2777 7.99999 14.2777C8.11787 14.2777 8.23091 14.2309 8.31426 14.1475C8.39761 14.0642 8.44444 13.9512 8.44444 13.8333V8.94439H13.3333C13.4512 8.94439 13.5642 8.89757 13.6476 8.81422C13.7309 8.73087 13.7778 8.61782 13.7778 8.49995C13.7778 8.38207 13.7309 8.26903 13.6476 8.18568C13.5642 8.10233 13.4512 8.0555 13.3333 8.0555Z" fill="#B9B9B9"/>
</g>
<defs>
<clipPath id="clip0_79_2047">
<rect width="16" height="16" fill="white" transform="translate(0 0.5)"/>
</clipPath>
</defs>
</svg>
