<svg width="24" height="24" viewBox="0 0 24 24" fill="none" xmlns="http://www.w3.org/2000/svg">
<path d="M2 19.3333C2 17.9188 2.52678 16.5623 3.46447 15.5621C4.40215 14.5619 5.67392 14 7 14H17C18.3261 14 19.5979 14.5619 20.5355 15.5621C21.4732 16.5623 22 17.9188 22 19.3333C22 20.0406 21.7366 20.7189 21.2678 21.219C20.7989 21.719 20.163 22 19.5 22H4.5C3.83696 22 3.20107 21.719 2.73223 21.219C2.26339 20.7189 2 20.0406 2 19.3333Z" fill="#FF3B30"/>
<path d="M12.5 9C14.433 9 16 7.433 16 5.5C16 3.567 14.433 2 12.5 2C10.567 2 9 3.567 9 5.5C9 7.433 10.567 9 12.5 9Z" fill="#FF3B30"/>
</svg>
