<svg width="16" height="17" viewBox="0 0 16 17" fill="none" xmlns="http://www.w3.org/2000/svg">
<rect width="16" height="17" fill="#1E1E1E"/>
<path fill-rule="evenodd" clip-rule="evenodd" d="M13.3333 0.599976C14.0406 0.599976 14.7189 0.880927 15.219 1.38102C15.719 1.88112 16 2.5594 16 3.26664V13.9333C16 14.6406 15.719 15.3188 15.219 15.8189C14.7189 16.319 14.0406 16.6 13.3333 16.6H2.66667C1.95942 16.6 1.28115 16.319 0.781049 15.8189C0.280952 15.3188 0 14.6406 0 13.9333V3.26664C0 2.5594 0.280952 1.88112 0.781049 1.38102C1.28115 0.880927 1.95942 0.599976 2.66667 0.599976H13.3333ZM4.44444 6.8222C4.2087 6.8222 3.9826 6.91585 3.81591 7.08255C3.64921 7.24925 3.55556 7.47534 3.55556 7.71109V12.1555C3.55556 12.3913 3.64921 12.6174 3.81591 12.7841C3.9826 12.9508 4.2087 13.0444 4.44444 13.0444C4.68019 13.0444 4.90628 12.9508 5.07298 12.7841C5.23968 12.6174 5.33333 12.3913 5.33333 12.1555V7.71109C5.33333 7.47534 5.23968 7.24925 5.07298 7.08255C4.90628 6.91585 4.68019 6.8222 4.44444 6.8222ZM7.11111 5.93331C6.87536 5.93331 6.64927 6.02696 6.48257 6.19366C6.31587 6.36036 6.22222 6.58645 6.22222 6.8222V12.1555C6.22222 12.3913 6.31587 12.6174 6.48257 12.7841C6.64927 12.9508 6.87536 13.0444 7.11111 13.0444C7.34686 13.0444 7.57295 12.9508 7.73965 12.7841C7.90635 12.6174 8 12.3913 8 12.1555V8.9022C8.27111 8.59642 8.72889 8.23731 9.23822 8.01953C9.53422 7.89331 9.97956 7.84175 10.2889 7.93953C10.3915 7.96557 10.4829 8.02421 10.5493 8.10664C10.5956 8.16886 10.6667 8.30753 10.6667 8.59998V12.1555C10.6667 12.3913 10.7603 12.6174 10.927 12.7841C11.0937 12.9508 11.3198 13.0444 11.5556 13.0444C11.7913 13.0444 12.0174 12.9508 12.1841 12.7841C12.3508 12.6174 12.4444 12.3913 12.4444 12.1555V8.59998C12.4444 8.00442 12.2933 7.47464 11.9787 7.04975C11.6891 6.66447 11.2839 6.38195 10.8222 6.24353C10.0204 5.99198 9.13244 6.13153 8.53956 6.38575C8.34975 6.46739 8.16484 6.55999 7.98578 6.66309C7.94852 6.45828 7.84055 6.27304 7.68071 6.13968C7.52086 6.00631 7.31928 5.93328 7.11111 5.93331ZM4.44444 4.15553C4.2087 4.15553 3.9826 4.24918 3.81591 4.41588C3.64921 4.58258 3.55556 4.80867 3.55556 5.04442C3.55556 5.28017 3.64921 5.50626 3.81591 5.67296C3.9826 5.83966 4.2087 5.93331 4.44444 5.93331C4.68019 5.93331 4.90628 5.83966 5.07298 5.67296C5.23968 5.50626 5.33333 5.28017 5.33333 5.04442C5.33333 4.80867 5.23968 4.58258 5.07298 4.41588C4.90628 4.24918 4.68019 4.15553 4.44444 4.15553Z" fill="white"/>
</svg>
