<svg width="16" height="17" viewBox="0 0 16 17" fill="none" xmlns="http://www.w3.org/2000/svg">
<rect width="16" height="17" fill="#1E1E1E"/>
<path d="M8 6.61598C7.6076 6.61598 7.22402 6.73233 6.89775 6.95034C6.57148 7.16834 6.31719 7.4782 6.16702 7.84073C6.01686 8.20326 5.97757 8.60218 6.05412 8.98703C6.13068 9.37189 6.31963 9.72541 6.5971 10.0029C6.87457 10.2803 7.22808 10.4693 7.61294 10.5459C7.9978 10.6224 8.39672 10.5831 8.75924 10.433C9.12177 10.2828 9.43163 10.0285 9.64964 9.70223C9.86764 9.37596 9.984 8.99237 9.984 8.59998C9.984 8.33943 9.93268 8.08144 9.83298 7.84073C9.73327 7.60002 9.58713 7.38131 9.4029 7.19708C9.21867 7.01284 8.99995 6.8667 8.75924 6.767C8.51853 6.66729 8.26054 6.61598 8 6.61598ZM15.944 4.65598C15.9398 4.03818 15.826 3.42603 15.608 2.84798C15.4474 2.42498 15.199 2.04085 14.8791 1.72092C14.5591 1.401 14.175 1.15255 13.752 0.991976C13.1739 0.773947 12.5618 0.660184 11.944 0.655976C10.912 0.599976 10.608 0.599976 8 0.599976C5.392 0.599976 5.088 0.599976 4.056 0.655976C3.43821 0.660184 2.82606 0.773947 2.248 0.991976C1.82501 1.15255 1.44088 1.401 1.12095 1.72092C0.801021 2.04085 0.552574 2.42498 0.392 2.84798C0.173971 3.42603 0.0602087 4.03818 0.0559999 4.65598C-5.36442e-08 5.68798 0 5.99198 0 8.59998C0 11.208 -5.36442e-08 11.512 0.0559999 12.544C0.0646111 13.1639 0.178219 13.778 0.392 14.36C0.551862 14.781 0.800103 15.1629 1.12 15.48C1.43855 15.8018 1.82351 16.0503 2.248 16.208C2.82606 16.426 3.43821 16.5398 4.056 16.544C5.088 16.6 5.392 16.6 8 16.6C10.608 16.6 10.912 16.6 11.944 16.544C12.5618 16.5398 13.1739 16.426 13.752 16.208C14.1765 16.0503 14.5614 15.8018 14.88 15.48C15.1999 15.1629 15.4481 14.781 15.608 14.36C15.8258 13.7791 15.9396 13.1643 15.944 12.544C16 11.512 16 11.208 16 8.59998C16 5.99198 16 5.68798 15.944 4.65598ZM13.912 11.056C13.8863 11.5497 13.781 12.0359 13.6 12.496C13.4447 12.8797 13.2138 13.2283 12.9211 13.5211C12.6284 13.8138 12.2797 14.0447 11.896 14.2C11.4316 14.3709 10.9426 14.4654 10.448 14.48H5.552C5.05738 14.4654 4.56839 14.3709 4.104 14.2C3.70728 14.0526 3.34902 13.8174 3.056 13.512C2.76613 13.225 2.54228 12.8783 2.4 12.496C2.22845 12.0321 2.13649 11.5425 2.128 11.048V6.15198C2.13649 5.65744 2.22845 5.16788 2.4 4.70398C2.54743 4.30726 2.78262 3.949 3.088 3.65598C3.37627 3.36767 3.72261 3.14405 4.104 2.99998C4.56839 2.8291 5.05738 2.73454 5.552 2.71998H10.448C10.9426 2.73454 11.4316 2.8291 11.896 2.99998C12.2927 3.1474 12.651 3.3826 12.944 3.68798C13.2339 3.97497 13.4577 4.32168 13.6 4.70398C13.7709 5.16837 13.8654 5.65736 13.88 6.15198V8.59998C13.88 10.248 13.936 10.416 13.912 11.048V11.056ZM12.632 5.10398C12.5368 4.84556 12.3866 4.61089 12.1918 4.41615C11.9971 4.2214 11.7624 4.07123 11.504 3.97598C11.1492 3.85298 10.7755 3.79341 10.4 3.79998H5.6C5.22261 3.80366 4.84886 3.87408 4.496 4.00798C4.24154 4.0989 4.00935 4.24295 3.81487 4.43054C3.62038 4.61813 3.46805 4.84497 3.368 5.09598C3.25182 5.45227 3.19506 5.82525 3.2 6.19998V11C3.20793 11.3769 3.27822 11.75 3.408 12.104C3.50325 12.3624 3.65343 12.5971 3.84817 12.7918C4.04291 12.9865 4.27759 13.1367 4.536 13.232C4.87733 13.3575 5.23652 13.4277 5.6 13.44H10.4C10.7774 13.4363 11.1511 13.3659 11.504 13.232C11.7624 13.1367 11.9971 12.9865 12.1918 12.7918C12.3866 12.5971 12.5368 12.3624 12.632 12.104C12.7659 11.7511 12.8363 11.3774 12.84 11V6.19998C12.8402 5.82221 12.7697 5.44775 12.632 5.09598V5.10398ZM8 11.656C7.59906 11.656 7.20205 11.5769 6.83173 11.4232C6.46141 11.2695 6.12504 11.0443 5.84191 10.7604C5.55877 10.4765 5.33442 10.1396 5.18172 9.76885C5.02901 9.39813 4.95095 9.00092 4.952 8.59998C4.952 7.99522 5.13144 7.40405 5.46759 6.90132C5.80374 6.3986 6.2815 6.00691 6.84037 5.77584C7.39925 5.54478 8.01412 5.48473 8.60714 5.60329C9.20017 5.72186 9.74468 6.01371 10.1717 6.4419C10.5988 6.87009 10.8892 7.41537 11.0063 8.0087C11.1233 8.60203 11.0616 9.21674 10.8291 9.77501C10.5965 10.3333 10.2036 10.81 9.7 11.1448C9.19639 11.4797 8.60476 11.6576 8 11.656ZM11.2 6.14398C11.0232 6.12526 10.8595 6.04175 10.7405 5.90955C10.6216 5.77735 10.5558 5.60581 10.5558 5.42798C10.5558 5.25014 10.6216 5.0786 10.7405 4.9464C10.8595 4.8142 11.0232 4.73069 11.2 4.71198C11.3768 4.73069 11.5405 4.8142 11.6595 4.9464C11.7784 5.0786 11.8442 5.25014 11.8442 5.42798C11.8442 5.60581 11.7784 5.77735 11.6595 5.90955C11.5405 6.04175 11.3768 6.12526 11.2 6.14398Z" fill="white"/>
</svg>
