<svg width="128" height="24" viewBox="0 0 128 24" fill="none" xmlns="http://www.w3.org/2000/svg">
<path d="M5.088 6.36V10.648H11.04V13.464H5.088V23H2.08V5.944C2.08 4.36533 2.58133 3.096 3.584 2.136C4.26667 1.496 5.03467 1.08 5.888 0.887999C6.74133 0.695999 7.78667 0.599998 9.024 0.599998H12.416V3.416H8.608C6.26133 3.416 5.088 4.39733 5.088 6.36ZM18.3105 23H15.3025V0.599998H18.3105V23ZM21.3625 3.416V0.599998H35.4425V3.416H29.9065V23H26.8985V3.416H21.3625ZM54.138 6.36V10.648H60.09V13.464H54.138V23H51.13V5.944C51.13 4.36533 51.6313 3.096 52.634 2.136C53.3167 1.496 54.0847 1.08 54.938 0.887999C55.7913 0.695999 56.8367 0.599998 58.074 0.599998H61.466V3.416H57.658C55.3113 3.416 54.138 4.39733 54.138 6.36ZM81.8565 11.896C81.8352 10.7013 81.6538 9.57067 81.3125 8.504C80.9925 7.43733 80.5125 6.50933 79.8725 5.72C79.2538 4.90933 78.4965 4.26933 77.6005 3.8C76.7045 3.33067 75.6912 3.096 74.5605 3.096C73.4298 3.096 72.4165 3.33067 71.5205 3.8C70.6245 4.26933 69.8565 4.90933 69.2165 5.72C68.5978 6.50933 68.1178 7.43733 67.7765 8.504C67.4565 9.57067 67.2858 10.7013 67.2645 11.896C67.2858 13.112 67.4565 14.2427 67.7765 15.288C68.1178 16.3333 68.5978 17.24 69.2165 18.008C69.8565 18.776 70.6245 19.384 71.5205 19.832C72.4165 20.28 73.4298 20.504 74.5605 20.504C75.6912 20.504 76.7045 20.28 77.6005 19.832C78.4965 19.384 79.2538 18.776 79.8725 18.008C80.5125 17.24 80.9925 16.3333 81.3125 15.288C81.6538 14.2427 81.8352 13.112 81.8565 11.896ZM64.0325 11.896C64.0538 10.1253 64.3205 8.52533 64.8325 7.096C65.3445 5.66667 66.0592 4.45067 66.9765 3.448C67.8938 2.424 68.9925 1.64533 70.2725 1.112C71.5525 0.557332 72.9818 0.279999 74.5605 0.279999C76.1178 0.279999 77.5365 0.557332 78.8165 1.112C80.1178 1.64533 81.2272 2.424 82.1445 3.448C83.0618 4.45067 83.7765 5.66667 84.2885 7.096C84.8005 8.52533 85.0672 10.1253 85.0885 11.896C85.0672 13.6667 84.8005 15.256 84.2885 16.664C83.7978 18.072 83.0938 19.2667 82.1765 20.248C81.2592 21.2293 80.1498 21.9867 78.8485 22.52C77.5685 23.0533 76.1392 23.32 74.5605 23.32C72.9818 23.32 71.5418 23.0533 70.2405 22.52C68.9605 21.9867 67.8618 21.2293 66.9445 20.248C66.0272 19.2667 65.3125 18.072 64.8005 16.664C64.3098 15.256 64.0538 13.6667 64.0325 11.896ZM106.763 11.896C106.741 10.7013 106.56 9.57067 106.219 8.504C105.899 7.43733 105.419 6.50933 104.779 5.72C104.16 4.90933 103.403 4.26933 102.507 3.8C101.611 3.33067 100.597 3.096 99.4668 3.096C98.3361 3.096 97.3228 3.33067 96.4268 3.8C95.5308 4.26933 94.7628 4.90933 94.1228 5.72C93.5041 6.50933 93.0241 7.43733 92.6828 8.504C92.3628 9.57067 92.1921 10.7013 92.1708 11.896C92.1921 13.112 92.3628 14.2427 92.6828 15.288C93.0241 16.3333 93.5041 17.24 94.1228 18.008C94.7628 18.776 95.5308 19.384 96.4268 19.832C97.3228 20.28 98.3361 20.504 99.4668 20.504C100.597 20.504 101.611 20.28 102.507 19.832C103.403 19.384 104.16 18.776 104.779 18.008C105.419 17.24 105.899 16.3333 106.219 15.288C106.56 14.2427 106.741 13.112 106.763 11.896ZM88.9388 11.896C88.9601 10.1253 89.2268 8.52533 89.7388 7.096C90.2508 5.66667 90.9654 4.45067 91.8828 3.448C92.8001 2.424 93.8988 1.64533 95.1788 1.112C96.4588 0.557332 97.8881 0.279999 99.4668 0.279999C101.024 0.279999 102.443 0.557332 103.723 1.112C105.024 1.64533 106.133 2.424 107.051 3.448C107.968 4.45067 108.683 5.66667 109.195 7.096C109.707 8.52533 109.973 10.1253 109.995 11.896C109.973 13.6667 109.707 15.256 109.195 16.664C108.704 18.072 108 19.2667 107.083 20.248C106.165 21.2293 105.056 21.9867 103.755 22.52C102.475 23.0533 101.045 23.32 99.4668 23.32C97.8881 23.32 96.4481 23.0533 95.1468 22.52C93.8668 21.9867 92.7681 21.2293 91.8508 20.248C90.9334 19.2667 90.2188 18.072 89.7068 16.664C89.2161 15.256 88.9601 13.6667 88.9388 11.896ZM112.725 3.416V0.599998H126.805V3.416H121.269V23H118.261V3.416H112.725Z" fill="#1C1C1C"/>
<path d="M40.1 19.22C39.4333 19.22 38.78 19.0733 38.14 18.78C37.5 18.4867 36.9667 18.0733 36.54 17.54C36.1267 17.0067 35.92 16.3733 35.92 15.64C35.92 15 36.06 14.4267 36.34 13.92C36.62 13.4133 36.9867 12.9533 37.44 12.54C37.9067 12.1267 38.4067 11.7467 38.94 11.4C38.54 10.8133 38.22 10.3133 37.98 9.9C37.74 9.47333 37.5667 9.08667 37.46 8.74C37.3667 8.38 37.32 8.01333 37.32 7.64C37.32 6.94667 37.48 6.37333 37.8 5.92C38.12 5.45333 38.5333 5.1 39.04 4.86C39.56 4.62 40.12 4.5 40.72 4.5C41.52 4.5 42.1667 4.62667 42.66 4.88C43.1533 5.13333 43.5133 5.46 43.74 5.86C43.98 6.26 44.1 6.66667 44.1 7.08C44.1 7.62667 43.9267 8.14 43.58 8.62C43.2333 9.1 42.8 9.54667 42.28 9.96C41.76 10.36 41.2467 10.7133 40.74 11.02C40.98 11.3533 41.2467 11.7133 41.54 12.1C41.8333 12.4867 42.1533 12.92 42.5 13.4C43.18 14.3333 43.7933 15.12 44.34 15.76C44.4067 15.6667 44.4667 15.58 44.52 15.5C44.5733 15.4067 44.62 15.3267 44.66 15.26C45.1933 14.3933 45.46 13.7467 45.46 13.32C45.46 13.04 45.3467 12.8333 45.12 12.7C44.9067 12.5667 44.5867 12.48 44.16 12.44L43.56 12.38V11.88L46.18 11.94L48.36 11.88V12.36L47.64 12.52C47.1467 12.6267 46.7267 12.9467 46.38 13.48C46.0467 14.0133 45.68 14.6533 45.28 15.4C45.2133 15.5333 45.1333 15.6733 45.04 15.82C44.96 15.9667 44.8667 16.12 44.76 16.28C45.44 17.04 45.9867 17.5733 46.4 17.88C46.8133 18.1733 47.1467 18.32 47.4 18.32C47.7867 18.32 48.16 18.16 48.52 17.84L48.84 18.22C48.5867 18.54 48.2733 18.7867 47.9 18.96C47.5267 19.1333 47.1667 19.22 46.82 19.22C46.4733 19.22 46.1467 19.1867 45.84 19.12C45.5333 19.0533 45.2067 18.9133 44.86 18.7C44.5267 18.4733 44.1333 18.12 43.68 17.64C43.2533 18.08 42.74 18.4533 42.14 18.76C41.5533 19.0667 40.8733 19.22 40.1 19.22ZM38.98 7.08C38.98 7.69333 39.0933 8.25333 39.32 8.76C39.5467 9.26667 39.9133 9.87333 40.42 10.58C40.9533 10.1133 41.3733 9.7 41.68 9.34C41.9867 8.98 42.2 8.62 42.32 8.26C42.44 7.9 42.5 7.5 42.5 7.06C42.5 6.5 42.3467 6.04 42.04 5.68C41.7333 5.32 41.3267 5.14 40.82 5.14C40.2467 5.14 39.7933 5.32667 39.46 5.7C39.14 6.06 38.98 6.52 38.98 7.08ZM37.72 15.66C37.72 16.0867 37.7933 16.5267 37.94 16.98C38.0867 17.4333 38.3467 17.8133 38.72 18.12C39.0933 18.4267 39.6133 18.58 40.28 18.58C40.88 18.58 41.4267 18.44 41.92 18.16C42.4133 17.8667 42.8533 17.5267 43.24 17.14C42.8667 16.7 42.4533 16.1733 42 15.56C41.4533 14.8267 40.9667 14.1733 40.54 13.6C40.1133 13.0133 39.7333 12.4933 39.4 12.04C38.9067 12.52 38.5 13.0533 38.18 13.64C37.8733 14.2133 37.72 14.8867 37.72 15.66Z" fill="#FF3B30"/>
</svg>
